<svg width="1600" height="900" viewBox="0 0 1600 900" fill="none" xmlns="http://www.w3.org/2000/svg">
  <defs>
    <linearGradient id="bg" x1="142" y1="72" x2="1414" y2="854" gradientUnits="userSpaceOnUse">
      <stop stop-color="#041729"/>
      <stop offset="0.55" stop-color="#0A3A66"/>
      <stop offset="1" stop-color="#0C5E93"/>
    </linearGradient>
    <linearGradient id="glass" x1="1084" y1="172" x2="1346" y2="734" gradientUnits="userSpaceOnUse">
      <stop stop-color="white" stop-opacity="0.22"/>
      <stop offset="1" stop-color="white" stop-opacity="0.02"/>
    </linearGradient>
  </defs>
  <rect width="1600" height="900" rx="42" fill="url(#bg)"/>
  <circle cx="1320" cy="154" r="210" fill="#2AA5FF" fill-opacity="0.15"/>
  <circle cx="1508" cy="706" r="286" fill="#3FE1C0" fill-opacity="0.1"/>
  <path d="M976 168C976 145.909 993.909 128 1016 128H1384C1406.09 128 1424 145.909 1424 168V732C1424 754.091 1406.09 772 1384 772H1016C993.909 772 976 754.091 976 732V168Z" fill="url(#glass)" stroke="white" stroke-opacity="0.18"/>
  <path d="M1088 264H1312" stroke="white" stroke-opacity="0.46" stroke-width="18" stroke-linecap="round"/>
  <path d="M1088 330H1360" stroke="white" stroke-opacity="0.16" stroke-width="18" stroke-linecap="round"/>
  <path d="M1088 396H1294" stroke="white" stroke-opacity="0.16" stroke-width="18" stroke-linecap="round"/>
  <path d="M1088 498H1318" stroke="white" stroke-opacity="0.16" stroke-width="18" stroke-linecap="round"/>
  <path d="M1088 564H1242" stroke="white" stroke-opacity="0.16" stroke-width="18" stroke-linecap="round"/>
  <path d="M1088 630H1348" stroke="white" stroke-opacity="0.16" stroke-width="18" stroke-linecap="round"/>
  <rect x="1088" y="704" width="188" height="22" rx="11" fill="#8FD6FF" fill-opacity="0.54"/>
  <text x="150" y="190" fill="#8FD6FF" font-family="Pretendard, Noto Sans KR, sans-serif" font-size="36" font-weight="700" letter-spacing="4">
    INDEPENDENT PUBLIC SITE
  </text>
  <text x="150" y="332" fill="white" font-family="Pretendard, Noto Sans KR, sans-serif" font-size="92" font-weight="800">
    <tspan x="150" dy="0">건설업 양도양수와 등록 실무를</tspan>
    <tspan x="150" dy="110">한눈에 안내하는 독립 퍼블릭 사이트</tspan>
  </text>
  <text x="150" y="602" fill="white" fill-opacity="0.74" font-family="Pretendard, Noto Sans KR, sans-serif" font-size="36" font-weight="500">
    상담 중심 운영 사이트와 AI 시스템을 분리한 공개용 골격
  </text>
  <rect x="150" y="676" width="116" height="116" rx="28" fill="white" fill-opacity="0.12"/>
  <text x="180" y="752" fill="white" font-family="Pretendard, Noto Sans KR, sans-serif" font-size="46" font-weight="800">
    CB
  </text>
</svg>
